<mxfile host="app.diagrams.net" modified="2023-04-26T07:34:00.511Z" agent="Mozilla/5.0 (Windows NT 10.0; Win64; x64) AppleWebKit/537.36 (KHTML, like Gecko) Chrome/109.0.0.0 Safari/537.36" etag="_DQbv_3o207O37RG3lu4" version="21.2.2" type="github">
  <diagram name="Page-1" id="c7488fd3-1785-93aa-aadb-54a6760d102a">
    <mxGraphModel dx="1434" dy="707" grid="1" gridSize="10" guides="1" tooltips="1" connect="1" arrows="1" fold="1" page="1" pageScale="1" pageWidth="1100" pageHeight="850" background="none" math="0" shadow="0">
      <root>
        <mxCell id="0" />
        <mxCell id="1" parent="0" />
        <mxCell id="2b4e8129b02d487f-1" value="" style="swimlane;html=1;childLayout=stackLayout;horizontal=1;startSize=20;horizontalStack=0;rounded=0;shadow=0;labelBackgroundColor=none;strokeWidth=1;fontFamily=Verdana;fontSize=8;align=center;" parent="1" vertex="1">
          <mxGeometry x="200" y="30" width="680" height="620" as="geometry" />
        </mxCell>
        <mxCell id="2b4e8129b02d487f-2" value="Customer" style="swimlane;html=1;startSize=20;horizontal=0;" parent="2b4e8129b02d487f-1" vertex="1">
          <mxGeometry y="20" width="680" height="150" as="geometry" />
        </mxCell>
        <mxCell id="x17FgntfTVtqZCkVvX53-7" value="&lt;font style=&quot;font-size: 13px;&quot;&gt;Order book&lt;/font&gt;" style="strokeWidth=1;html=1;shape=mxgraph.flowchart.terminator;whiteSpace=wrap;" parent="2b4e8129b02d487f-2" vertex="1">
          <mxGeometry x="92.5" y="55" width="65" height="40" as="geometry" />
        </mxCell>
        <mxCell id="2b4e8129b02d487f-3" value="Librarian" style="swimlane;html=1;startSize=20;horizontal=0;" parent="2b4e8129b02d487f-1" vertex="1">
          <mxGeometry y="170" width="680" height="150" as="geometry" />
        </mxCell>
        <mxCell id="7xp74EcXJsoQEg6T1ZSm-30" value="&lt;font style=&quot;font-size: 12px;&quot;&gt;Source item&lt;/font&gt;" style="rounded=1;whiteSpace=wrap;html=1;shadow=0;labelBackgroundColor=none;strokeWidth=1;fontFamily=Verdana;fontSize=8;align=center;" parent="2b4e8129b02d487f-3" vertex="1">
          <mxGeometry x="240" y="50" width="70" height="37" as="geometry" />
        </mxCell>
        <mxCell id="7xp74EcXJsoQEg6T1ZSm-59" value="&lt;font style=&quot;font-size: 12px;&quot;&gt;Pull form stock&lt;/font&gt;" style="rounded=1;whiteSpace=wrap;html=1;shadow=0;labelBackgroundColor=none;strokeWidth=1;fontFamily=Verdana;fontSize=8;align=center;" parent="2b4e8129b02d487f-3" vertex="1">
          <mxGeometry x="375" y="50" width="70" height="37" as="geometry" />
        </mxCell>
        <mxCell id="7xp74EcXJsoQEg6T1ZSm-45" style="edgeStyle=orthogonalEdgeStyle;rounded=0;orthogonalLoop=1;jettySize=auto;html=1;entryX=0;entryY=0.5;entryDx=0;entryDy=0;exitX=1;exitY=0.5;exitDx=0;exitDy=0;" parent="2b4e8129b02d487f-3" source="7xp74EcXJsoQEg6T1ZSm-30" target="7xp74EcXJsoQEg6T1ZSm-59" edge="1">
          <mxGeometry relative="1" as="geometry" />
        </mxCell>
        <mxCell id="7xp74EcXJsoQEg6T1ZSm-21" value="Field Services" style="swimlane;html=1;startSize=20;horizontal=0;" parent="2b4e8129b02d487f-1" vertex="1">
          <mxGeometry y="320" width="680" height="150" as="geometry" />
        </mxCell>
        <mxCell id="7xp74EcXJsoQEg6T1ZSm-46" style="edgeStyle=orthogonalEdgeStyle;rounded=0;orthogonalLoop=1;jettySize=auto;html=1;entryX=0;entryY=0.5;entryDx=0;entryDy=0;" parent="7xp74EcXJsoQEg6T1ZSm-21" source="7xp74EcXJsoQEg6T1ZSm-31" target="7xp74EcXJsoQEg6T1ZSm-42" edge="1">
          <mxGeometry relative="1" as="geometry" />
        </mxCell>
        <mxCell id="7xp74EcXJsoQEg6T1ZSm-31" value="&lt;font style=&quot;font-size: 12px;&quot;&gt;Receiving item&lt;/font&gt;" style="rounded=1;whiteSpace=wrap;html=1;shadow=0;labelBackgroundColor=none;strokeWidth=1;fontFamily=Verdana;fontSize=8;align=center;" parent="7xp74EcXJsoQEg6T1ZSm-21" vertex="1">
          <mxGeometry x="375" y="57" width="70" height="37" as="geometry" />
        </mxCell>
        <mxCell id="7xp74EcXJsoQEg6T1ZSm-42" value="&lt;font style=&quot;font-size: 12px;&quot;&gt;Delivery&lt;/font&gt;" style="rounded=1;whiteSpace=wrap;html=1;shadow=0;labelBackgroundColor=none;strokeWidth=1;fontFamily=Verdana;fontSize=8;align=center;" parent="7xp74EcXJsoQEg6T1ZSm-21" vertex="1">
          <mxGeometry x="500" y="56.5" width="70" height="37" as="geometry" />
        </mxCell>
        <mxCell id="2b4e8129b02d487f-24" style="edgeStyle=orthogonalEdgeStyle;rounded=0;html=1;labelBackgroundColor=none;startArrow=none;startFill=0;startSize=5;endArrow=classicThin;endFill=1;endSize=5;jettySize=auto;orthogonalLoop=1;strokeWidth=1;fontFamily=Verdana;fontSize=8;entryX=0.5;entryY=0;entryDx=0;entryDy=0;entryPerimeter=0;exitX=0.5;exitY=1;exitDx=0;exitDy=0;exitPerimeter=0;" parent="2b4e8129b02d487f-1" source="x17FgntfTVtqZCkVvX53-7" target="7xp74EcXJsoQEg6T1ZSm-29" edge="1">
          <mxGeometry relative="1" as="geometry">
            <mxPoint x="155" y="530" as="targetPoint" />
            <mxPoint x="125" y="113.5" as="sourcePoint" />
          </mxGeometry>
        </mxCell>
        <mxCell id="7xp74EcXJsoQEg6T1ZSm-43" style="edgeStyle=orthogonalEdgeStyle;rounded=0;orthogonalLoop=1;jettySize=auto;html=1;entryX=0.5;entryY=1;entryDx=0;entryDy=0;dashed=1;exitX=1;exitY=0.5;exitDx=0;exitDy=0;exitPerimeter=0;" parent="2b4e8129b02d487f-1" source="7xp74EcXJsoQEg6T1ZSm-29" target="7xp74EcXJsoQEg6T1ZSm-30" edge="1">
          <mxGeometry relative="1" as="geometry">
            <Array as="points">
              <mxPoint x="275" y="528" />
            </Array>
          </mxGeometry>
        </mxCell>
        <mxCell id="7xp74EcXJsoQEg6T1ZSm-55" value="" style="edgeStyle=orthogonalEdgeStyle;rounded=0;orthogonalLoop=1;jettySize=auto;html=1;" parent="2b4e8129b02d487f-1" source="7xp74EcXJsoQEg6T1ZSm-52" target="7xp74EcXJsoQEg6T1ZSm-42" edge="1">
          <mxGeometry relative="1" as="geometry" />
        </mxCell>
        <mxCell id="2b4e8129b02d487f-4" value="System" style="swimlane;html=1;startSize=20;horizontal=0;" parent="2b4e8129b02d487f-1" vertex="1">
          <mxGeometry y="470" width="680" height="150" as="geometry" />
        </mxCell>
        <mxCell id="7xp74EcXJsoQEg6T1ZSm-56" style="edgeStyle=orthogonalEdgeStyle;rounded=0;orthogonalLoop=1;jettySize=auto;html=1;entryX=0;entryY=0.5;entryDx=0;entryDy=0;exitX=0.5;exitY=1;exitDx=0;exitDy=0;exitPerimeter=0;" parent="2b4e8129b02d487f-4" source="7xp74EcXJsoQEg6T1ZSm-29" target="7xp74EcXJsoQEg6T1ZSm-51" edge="1">
          <mxGeometry relative="1" as="geometry" />
        </mxCell>
        <mxCell id="7xp74EcXJsoQEg6T1ZSm-29" value="&lt;font style=&quot;font-size: 12px;&quot;&gt;Procurement&lt;/font&gt;" style="strokeWidth=1;html=1;shape=mxgraph.flowchart.decision;whiteSpace=wrap;" parent="2b4e8129b02d487f-4" vertex="1">
          <mxGeometry x="70" y="20" width="90" height="65" as="geometry" />
        </mxCell>
        <mxCell id="7xp74EcXJsoQEg6T1ZSm-54" value="" style="edgeStyle=orthogonalEdgeStyle;rounded=0;orthogonalLoop=1;jettySize=auto;html=1;" parent="2b4e8129b02d487f-4" source="7xp74EcXJsoQEg6T1ZSm-51" target="7xp74EcXJsoQEg6T1ZSm-52" edge="1">
          <mxGeometry relative="1" as="geometry" />
        </mxCell>
        <mxCell id="7xp74EcXJsoQEg6T1ZSm-51" value="&lt;font style=&quot;font-size: 12px;&quot;&gt;Book is sourced&lt;/font&gt;" style="rounded=1;whiteSpace=wrap;html=1;shadow=0;labelBackgroundColor=none;strokeWidth=1;fontFamily=Verdana;fontSize=8;align=center;" parent="2b4e8129b02d487f-4" vertex="1">
          <mxGeometry x="230" y="100" width="70" height="37" as="geometry" />
        </mxCell>
        <mxCell id="7xp74EcXJsoQEg6T1ZSm-52" value="&lt;font style=&quot;font-size: 12px;&quot;&gt;Book is received&lt;/font&gt;" style="rounded=1;whiteSpace=wrap;html=1;shadow=0;labelBackgroundColor=none;strokeWidth=1;fontFamily=Verdana;fontSize=8;align=center;" parent="2b4e8129b02d487f-4" vertex="1">
          <mxGeometry x="380" y="100" width="70" height="37" as="geometry" />
        </mxCell>
        <mxCell id="7xp74EcXJsoQEg6T1ZSm-44" value="No" style="text;html=1;align=center;verticalAlign=middle;resizable=0;points=[];autosize=1;strokeColor=none;fillColor=none;" parent="2b4e8129b02d487f-4" vertex="1">
          <mxGeometry x="160" y="30" width="40" height="30" as="geometry" />
        </mxCell>
        <mxCell id="x17FgntfTVtqZCkVvX53-10" value="End" style="strokeWidth=1;html=1;shape=mxgraph.flowchart.terminator;whiteSpace=wrap;" parent="2b4e8129b02d487f-4" vertex="1">
          <mxGeometry x="590" y="100" width="70" height="37" as="geometry" />
        </mxCell>
        <mxCell id="7xp74EcXJsoQEg6T1ZSm-60" style="edgeStyle=orthogonalEdgeStyle;rounded=0;orthogonalLoop=1;jettySize=auto;html=1;entryX=0.5;entryY=0;entryDx=0;entryDy=0;" parent="2b4e8129b02d487f-1" source="7xp74EcXJsoQEg6T1ZSm-59" target="7xp74EcXJsoQEg6T1ZSm-31" edge="1">
          <mxGeometry relative="1" as="geometry" />
        </mxCell>
        <mxCell id="x17FgntfTVtqZCkVvX53-6" style="edgeStyle=orthogonalEdgeStyle;rounded=0;orthogonalLoop=1;jettySize=auto;html=1;entryX=0.5;entryY=0;entryDx=0;entryDy=0;entryPerimeter=0;" parent="2b4e8129b02d487f-1" source="7xp74EcXJsoQEg6T1ZSm-42" target="x17FgntfTVtqZCkVvX53-10" edge="1">
          <mxGeometry relative="1" as="geometry">
            <mxPoint x="625" y="570" as="targetPoint" />
          </mxGeometry>
        </mxCell>
        <mxCell id="7xp74EcXJsoQEg6T1ZSm-57" value="Yes" style="text;html=1;align=center;verticalAlign=middle;resizable=0;points=[];autosize=1;strokeColor=none;fillColor=none;" parent="1" vertex="1">
          <mxGeometry x="360" y="588" width="40" height="30" as="geometry" />
        </mxCell>
      </root>
    </mxGraphModel>
  </diagram>
</mxfile>
